<svg xmlns="http://www.w3.org/2000/svg" width="385.512" height="395.362" viewBox="0 0 385.512 395.362"><g transform="translate(3.5 3.5)"><g transform="translate(123.226 150.764)"><rect width="176.697" height="119.583" rx="7.509" fill="none" stroke="#2680eb" stroke-miterlimit="10" stroke-width="7"/><line y1="0.009" x2="26.923" transform="translate(11.155 82.436)" fill="none" stroke="#93bef2" stroke-linecap="round" stroke-miterlimit="10" stroke-width="7"/><line x2="29.449" transform="translate(52.801 82.445)" fill="none" stroke="#93bef2" stroke-linecap="round" stroke-miterlimit="10" stroke-width="7"/><line x2="29.449" transform="translate(94.447 82.445)" fill="none" stroke="#93bef2" stroke-linecap="round" stroke-miterlimit="10" stroke-width="7"/><line x2="176.697" transform="translate(0 24.541)" fill="none" stroke="#2680eb" stroke-linecap="round" stroke-miterlimit="10" stroke-width="7"/><line x2="176.697" transform="translate(0 45.067)" fill="none" stroke="#2680eb" stroke-linecap="round" stroke-miterlimit="10" stroke-width="7"/><line x2="29.449" transform="translate(136.092 82.445)" fill="none" stroke="#93bef2" stroke-linecap="round" stroke-miterlimit="10" stroke-width="7"/><line x2="71.095" transform="translate(11.155 94.595)" fill="none" stroke="#93bef2" stroke-linecap="round" stroke-miterlimit="10" stroke-width="7"/><line x2="29.449" transform="translate(136.092 94.595)" fill="none" stroke="#93bef2" stroke-linecap="round" stroke-miterlimit="10" stroke-width="7"/><path d="M1010.31,354.1" transform="translate(-969.706 -342.242)" fill="none" stroke="#2680eb" stroke-linecap="round" stroke-miterlimit="10" stroke-width="7"/></g><path d="M927.278,378.1" transform="translate(-916.516 -171.234)" fill="none" stroke="#1a1311" stroke-linecap="round" stroke-miterlimit="10" stroke-width="7"/><ellipse cx="10.193" cy="10.193" rx="10.193" ry="10.193" transform="translate(0 149.687)" fill="none" stroke="#2680eb" stroke-linecap="round" stroke-miterlimit="10" stroke-width="7"/><ellipse cx="45.333" cy="45.332" rx="45.333" ry="45.332" transform="translate(242.194 297.697)" fill="none" stroke="#feaa3c" stroke-linecap="round" stroke-miterlimit="10" stroke-width="7"/><line x2="57.183" transform="translate(259.083 342.881)" fill="none" stroke="#feaa3c" stroke-linecap="round" stroke-miterlimit="10" stroke-width="7"/><line y1="57.183" transform="translate(287.675 314.29)" fill="none" stroke="#feaa3c" stroke-linecap="round" stroke-miterlimit="10" stroke-width="7"/><path d="M1134.685,550.235a185.989,185.989,0,0,1-23.556,1.493,184.121,184.121,0,0,1-184.16-184.16" transform="translate(-916.777 -180.117)" fill="none" stroke="#2680eb" stroke-linecap="round" stroke-miterlimit="10" stroke-width="7"/><path d="M1129.164,370.892a159.461,159.461,0,0,1-9.487,48.74,151.89,151.89,0,0,1-20.52,38.271" transform="translate(-771.539 -177.314)" fill="none" stroke="#93bef2" stroke-linecap="round" stroke-miterlimit="10" stroke-width="7"/><path d="M960.28,436.669a149.687,149.687,0,0,1-19.911-45.584" transform="translate(-905.474 -160.282)" fill="none" stroke="#93bef2" stroke-linecap="round" stroke-miterlimit="10" stroke-width="7"/><path d="M996.888,449.526" transform="translate(-857.802 -110.988)" fill="none" stroke="#1a1311" stroke-linecap="round" stroke-miterlimit="10" stroke-width="7"/><path d="M1073.169,279.027" transform="translate(-793.461 -254.8)" fill="none" stroke="#1a1311" stroke-linecap="round" stroke-miterlimit="10" stroke-width="7"/><path d="M1052.885,271.093" transform="translate(-810.57 -261.492)" fill="none" stroke="#1a1311" stroke-linecap="round" stroke-miterlimit="10" stroke-width="7"/><path d="M1250.664,560.1a183.772,183.772,0,0,0,36.057-109.619c0-101.95-82.649-184.6-184.6-184.6a184.6,184.6,0,0,0-165,101.723" transform="translate(-908.209 -265.885)" fill="none" stroke="#2680eb" stroke-linecap="round" stroke-miterlimit="10" stroke-width="7"/><ellipse cx="5.093" cy="5.093" rx="5.093" ry="5.093" transform="translate(352.593 172.038)" fill="#93bef2"/><ellipse cx="5.093" cy="5.093" rx="5.093" ry="5.093" transform="translate(135.024 83.048)" fill="#93bef2"/><ellipse cx="5.093" cy="5.093" rx="5.093" ry="5.093" transform="translate(58.18 283.113)" fill="#93bef2"/><path d="M998.394,463.6a13.884,13.884,0,0,1-16.906-9.872L958.14,364.845a13.885,13.885,0,0,1,9.872-16.9l144.123-37.858a13.883,13.883,0,0,1,16.9,9.872l11.564,44.022" transform="translate(-890.866 -228.987)" fill="none" stroke="#2680eb" stroke-linecap="round" stroke-miterlimit="10" stroke-width="7"/><line y1="16.591" x2="58.762" transform="translate(152.812 67.192)" fill="none" stroke="#93bef2" stroke-linecap="round" stroke-miterlimit="10" stroke-width="7"/></g></svg>