<svg xmlns="http://www.w3.org/2000/svg" width="48.991" height="44.151" viewBox="0 0 48.991 44.151"><g transform="translate(1.986 2.609)"><g transform="translate(0 0)"><path d="M.322,14.888c-.214-.812-1.592-2.106,3.647-6.164S11.981,2.15,11.981,2.15s4.546-5.188,6.282.555,6.3,20.053,6.3,20.053,1.783,4.773-1.957,4.788-15.833-.207-15.833-.207-1.965-.409-3.242-3.418-2.9-7.9-2.9-7.9Z" transform="translate(0 12.464) rotate(-11)" fill="none" stroke="#707070" stroke-width="3.5"/><path d="M0,0S8.823,3.836,4.22,14.193" transform="translate(27.561 10.554) rotate(-11)" fill="none" stroke="#707070" stroke-linecap="round" stroke-width="3.5"/><path d="M0,0A19.548,19.548,0,0,1,7.553,6.7c2.518,3.749,4.124,10.049.111,19.078" transform="translate(29.939 1.927) rotate(-11)" fill="none" stroke="#707070" stroke-linecap="round" stroke-width="3.5"/></g></g></svg>