<svg id="图层_1" data-name="图层 1" xmlns="http://www.w3.org/2000/svg" xmlns:xlink="http://www.w3.org/1999/xlink" viewBox="0 0 259.79 75.09"><defs><style>.cls-1{fill:none;}.cls-2{clip-path:url(#clip-path);}.cls-3{opacity:0.5;}.cls-4{clip-path:url(#clip-path-3);}.cls-5{fill:#9d9d9c;}.cls-6{clip-path:url(#clip-path-4);}.cls-7{fill:#fff;}.cls-8{clip-path:url(#clip-path-5);}.cls-9{clip-path:url(#clip-path-6);}.cls-10{clip-path:url(#clip-path-7);}.cls-11{clip-path:url(#clip-path-8);}.cls-12{fill:#fcfcfc;}</style><clipPath id="clip-path" transform="translate(-14.84 -100.19)"><rect class="cls-1" width="283.46" height="283.46"/></clipPath><clipPath id="clip-path-3" transform="translate(-14.84 -100.19)"><rect class="cls-1" x="16.37" y="106.47" width="242.68" height="68.81"/></clipPath><clipPath id="clip-path-4" transform="translate(-14.84 -100.19)"><path class="cls-1" d="M143.31,133.72c.81-9.44,9.42-15.63,19.11-16,6-.27,12-.2,18,0a6.79,6.79,0,0,1,4.36,1.89c3,3.29,7,9.11,7,9.11s-4.34,4.52-7.6,8.19c-.84.94-2.72,1.25-4.14,1.32a109.79,109.79,0,0,1-11.33,0c-9.54-.58-18.06,1.53-25.53,9.92,0-6.88-.38-8.95.09-14.38M177.23,103v7.62c-3.63,0-9-.16-13.79,0-14.23.34-25.19,10.91-25.6,25.06-.3,10.13-.18,26-.14,36.18h5.05c.32-16.31,9.79-24.93,23.59-25,3.61,0,7.22.06,10.82.13l.07,7.26h2.83c6.92-8.74,13.59-17.17,20.33-25.67-7.07-8.82-13.77-17.2-20.48-25.58Z"/></clipPath><clipPath id="clip-path-5" transform="translate(-14.84 -100.19)"><path class="cls-1" d="M21.53,113v9.41H56.6q4.55,0,7.22,4.76H33.16a18.33,18.33,0,0,0-13,5,16.29,16.29,0,0,0-5.27,12.33,19.17,19.17,0,0,0,4.89,13.42q4.88,5.37,13.43,5.37h25v-9.42h-25a8,8,0,0,1-5.88-2.44,7.85,7.85,0,0,1-2.44-5.74,9.94,9.94,0,0,1,2.1-6.53,7.64,7.64,0,0,1,6.22-2.54H64.48v26.67h10V130.52a17,17,0,0,0-5-12.49,17.46,17.46,0,0,0-12.91-5Z"/></clipPath><clipPath id="clip-path-6" transform="translate(-14.84 -100.19)"><rect class="cls-1" x="222.98" y="139.25" width="34.2" height="9.42"/></clipPath><clipPath id="clip-path-7" transform="translate(-14.84 -100.19)"><path class="cls-1" d="M224.38,113a17.32,17.32,0,0,0-12.8,5,17,17,0,0,0-5,12.49v32.72h10v-7.92h0V134.08h0v-3a9.11,9.11,0,0,1,2.22-6,7,7,0,0,1,5.65-2.65h33.12V113Z"/></clipPath><clipPath id="clip-path-8" transform="translate(-14.84 -100.19)"><path class="cls-1" d="M94.59,113a12.9,12.9,0,0,0-10.11,4.36,15,15,0,0,0-3.89,10.31,14.52,14.52,0,0,0,3.78,10.11,13.11,13.11,0,0,0,10.22,4.46h23.87q4.46,0,4.45,5.35,0,6-5,6.05H82.7V163h36.76a12.51,12.51,0,0,0,10.56-5,17,17,0,0,0,3.44-10.71,14.79,14.79,0,0,0-3.89-10.25,13,13,0,0,0-10.11-4.32h-24c-2.88,0-4.33-1.78-4.33-5.35q0-5.06,5-5.06h35.21V113Z"/></clipPath></defs><title>ASPD_Logo_白色</title><g class="cls-2"><g class="cls-2"><g class="cls-3"><g class="cls-4"><path class="cls-5" d="M180,114.08v-7.61h2.68l20.47,25.58L182.8,157.72H180l-.07-7.27c-3.61-.07-7.22-.13-10.82-.12-13.8,0-23.27,8.64-23.6,24.94h-5.05c0-10.14-.15-26,.15-36.18C141,125,152,114.38,166.18,114c4.78-.11,10.17,0,13.8,0m-34,37.44c7.47-8.39,16-10.5,25.52-9.92a107.24,107.24,0,0,0,11.34,0c1.42-.06,3.3-.37,4.13-1.31,3.26-3.68,7.6-8.19,7.6-8.19a113.91,113.91,0,0,0-7-9.12,6.74,6.74,0,0,0-4.36-1.88c-6-.2-12-.27-18,0-9.68.42-18.3,6.62-19.11,16.06-.47,5.42-.08,7.5-.08,14.37" transform="translate(-14.84 -100.19)"/><path class="cls-5" d="M76,166.3H66V139.63H34.7a7.6,7.6,0,0,0-6.22,2.55,9.85,9.85,0,0,0-2.11,6.53,7.84,7.84,0,0,0,2.44,5.73,8,8,0,0,0,5.89,2.44h25v9.42h-25q-8.57,0-13.44-5.37a19.16,19.16,0,0,1-4.89-13.42,16.23,16.23,0,0,1,5.28-12.32,18.25,18.25,0,0,1,13.05-5H65.35q-2.67-4.77-7.22-4.76H24.59V116H58.06A17.47,17.47,0,0,1,71,121.1a17,17,0,0,1,5,12.49Z" transform="translate(-14.84 -100.19)"/><path class="cls-5" d="M121,166.1H84.23v-9.42h35.21q5,0,5-6,0-5.35-4.44-5.35H96.12a13.09,13.09,0,0,1-10.22-4.47,14.48,14.48,0,0,1-3.78-10.11A15,15,0,0,1,86,120.4,12.93,12.93,0,0,1,96.12,116h36.76v9.42H97.67q-5,0-5,5,0,5.36,4.34,5.36h24a13,13,0,0,1,10.1,4.31A14.8,14.8,0,0,1,135,150.44a17.06,17.06,0,0,1-3.44,10.71A12.52,12.52,0,0,1,121,166.1" transform="translate(-14.84 -100.19)"/><path class="cls-5" d="M225.93,125.46a7.05,7.05,0,0,0-5.65,2.64,9.1,9.1,0,0,0-2.21,6v8.18h40.65v9.42H218.07V166.3h-10V133.59a17,17,0,0,1,5-12.49,17.32,17.32,0,0,1,12.8-5.06h33.14v9.42Z" transform="translate(-14.84 -100.19)"/></g></g></g><g class="cls-6"><rect class="cls-7" x="122.71" y="2.86" width="62.84" height="68.81"/></g><g class="cls-8"><rect class="cls-7" y="12.79" width="59.64" height="50.26"/></g><g class="cls-9"><rect class="cls-7" x="208.14" y="39.06" width="34.2" height="9.42"/></g><g class="cls-10"><rect class="cls-7" x="191.7" y="12.79" width="50.98" height="50.26"/></g><g class="cls-11"><rect class="cls-7" x="81.52" y="111.13" width="51.01" height="53.76" transform="translate(-47.73 142.34) rotate(-88.97)"/></g><g class="cls-2"><polygon class="cls-12" points="251.82 0 251.82 1.05 249.75 1.05 249.75 6.28 248.37 6.28 248.37 1.05 246.35 1.05 246.35 0 251.82 0"/><polygon class="cls-7" points="254.11 0 256.19 3.08 258.28 0 259.79 0 259.79 6.28 258.42 6.28 258.42 1.86 258.39 1.86 256.19 5.15 253.97 1.86 253.95 1.86 253.95 6.28 252.58 6.28 252.58 0 254.11 0"/></g></g></svg>