<svg xmlns="http://www.w3.org/2000/svg" width="47.468" height="42.927" viewBox="0 0 47.468 42.927"><g transform="translate(1.5 1.5)"><path d="M273.354,275.533h-3.193a1.72,1.72,0,0,0-1.673,1.719c.017,1.632.915,1.734,2.288,1.748s2.553.293,2.578,1.713-.389,1.809-2.578,1.809h-2.288" transform="translate(-244.51 -263.099)" fill="none" stroke="#2680eb" stroke-linecap="round" stroke-width="2"/><path d="M278.461,267.344v2.005" transform="translate(-252.187 -256.951)" fill="none" stroke="#2680eb" stroke-linecap="round" stroke-width="2"/><path d="M278.293,303.567v2" transform="translate(-252.019 -284.144)" fill="none" stroke="#2680eb" stroke-linecap="round" stroke-width="2"/><path d="M2955,1252.594h6.786l5.827,30.741h28.421" transform="translate(-2955 -1252.594)" fill="none" stroke="#2680eb" stroke-linecap="round" stroke-linejoin="round" stroke-width="3"/><path d="M2958.412,1255.642h36.245l-3.752,17.324h-28.582" transform="translate(-2950.189 -1248.297)" fill="none" stroke="#2680eb" stroke-linecap="round" stroke-linejoin="round" stroke-width="3"/><g transform="translate(15.216 31.427)" fill="none" stroke="#2680eb" stroke-width="3"><circle cx="5" cy="5" r="5" stroke="none"/><circle cx="5" cy="5" r="3.5" fill="none"/></g><g transform="translate(28.216 31.427)" fill="none" stroke="#2680eb" stroke-width="3"><circle cx="5" cy="5" r="5" stroke="none"/><circle cx="5" cy="5" r="3.5" fill="none"/></g></g></svg>