<svg xmlns="http://www.w3.org/2000/svg" width="49.157" height="49.157" viewBox="0 0 49.157 49.157"><g transform="translate(6.896 4.95)"><g transform="translate(0 31.591) rotate(-45)" fill="none" stroke-linecap="round"><path d="M6.252,0H43.868a.809.809,0,0,1,.809.809V7.28a.809.809,0,0,1-.809.809H6.252c-.447,0-.809-.362-6.252-4.411C5.443.362,5.805,0,6.252,0Z" stroke="none"/><path d="M 43.86759185791016 0 L 6.252094268798828 5.054473876953125e-05 C 5.805332183837891 5.054473876953125e-05 5.443161010742188 0.362220287322998 3.814697265625e-06 3.678780078887939 C 5.443153381347656 7.727230072021484 5.805320739746094 8.089400291442871 6.252082824707031 8.089400291442871 L 43.86758422851563 8.089349746704102 C 44.3143424987793 8.089349746704102 44.676513671875 7.727180004119873 44.676513671875 7.280420303344727 L 44.67652130126953 0.8089299201965332 C 44.67652130126953 0.3621702194213867 44.31435394287109 0 43.86759185791016 0 M 43.86759185791016 -3.5 C 46.2435417175293 -3.5 48.17652130126953 -1.567019462585449 48.17652130126953 0.8089299201965332 L 48.176513671875 7.280430316925049 C 48.176513671875 9.656370162963867 46.24353408813477 11.5893497467041 43.86758422851563 11.5893497467041 L 6.252082824707031 11.58940029144287 C 5.083850860595703 11.58940029144287 4.233470916748047 11.12246990203857 3.488544464111328 10.61787986755371 C 2.957653045654297 10.25827026367188 2.220661163330078 9.706760406494141 0.7523918151855469 8.607999801635742 C 0.004241943359375 8.048130035400391 -0.9268569946289063 7.351360321044922 -2.088787078857422 6.487160205841064 L -6.252758026123047 3.390120029449463 L -1.821147918701172 0.6898999214172363 C -0.03665924072265625 -0.39739990234375 1.180313110351563 -1.154020309448242 2.068901062011719 -1.706480026245117 C 3.020423889160156 -2.298059463500977 3.544570922851563 -2.623929977416992 3.950923919677734 -2.84745979309082 C 4.537471771240234 -3.170109748840332 5.269561767578125 -3.49994945526123 6.252094268798828 -3.49994945526123 L 43.86759185791016 -3.5 Z" stroke="none" fill="#707070"/></g><path d="M0,0,.844,1.073l.656.835" transform="translate(2.174 33.36)" fill="none" stroke="#707070" stroke-linecap="round" stroke-width="3.5"/><line x2="7.04" y2="7.278" transform="translate(25.895 4.377)" fill="none" stroke="#707070" stroke-linecap="round" stroke-width="3.5"/><path d="M254,202.953c.024-.073.829-5.219.829-5.219l4,5.024Z" transform="translate(-253.06 -166.984)" fill="none"/></g></svg>