<svg xmlns="http://www.w3.org/2000/svg" xmlns:xlink="http://www.w3.org/1999/xlink" width="34.865" height="38.236" viewBox="0 0 34.865 38.236"><defs><clipPath id="a"><rect width="34.865" height="38.236" fill="#2680eb"/></clipPath></defs><g transform="translate(0 0)"><g transform="translate(0 0)"><g transform="translate(0)" clip-path="url(#a)"><path d="M8.287,39.7V35.47H9.777L21.154,49.682,9.857,63.946l-1.569.007-.038-4.04c-2-.038-4.01-.07-6.014-.068-7.666.011-12.928,4.8-13.109,13.86H-13.68c-.023-5.636-.085-14.47.078-20.1A14.208,14.208,0,0,1,.623,39.679c2.651-.064,5.647.022,7.664.022m-18.9,22.708c4.15-4.662,8.885-5.835,14.182-5.513a59.617,59.617,0,0,0,6.3,0,3.539,3.539,0,0,0,2.3-.73c1.811-2.043,3.436-4.252,5.173-6.454-1.727-2.179-3.186-4.185-4.842-6.014a3.742,3.742,0,0,0-2.423-1.05c-3.338-.111-6.687-.15-10.023,0a11.292,11.292,0,0,0-10.62,9.874c-.259,3.015-.047,6.071-.047,9.892" transform="translate(13.711 -35.47)" fill="#2680eb"/></g></g></g></svg>