<svg xmlns="http://www.w3.org/2000/svg" xmlns:xlink="http://www.w3.org/1999/xlink" width="384.339" height="395.857" viewBox="0 0 384.339 395.857"><defs><clipPath id="a"><rect x="45" y="-2" width="384.339" height="395.857" fill="none"/></clipPath></defs><g transform="translate(-45 2)" clip-path="url(#a)" style="isolation:isolate"><g transform="translate(0 3.5)"><path d="M687.611,658.984" transform="translate(-687.611 -457.394)" fill="none" stroke="#1a1311" stroke-linecap="round" stroke-miterlimit="10" stroke-width="7"/><path d="M867.845,560.909" transform="translate(-541.153 -537.09)" fill="none" stroke="#1a1311" stroke-linecap="round" stroke-miterlimit="10" stroke-width="7"/><path d="M847.56,552.976" transform="translate(-557.636 -543.536)" fill="none" stroke="#1a1311" stroke-linecap="round" stroke-miterlimit="10" stroke-width="7"/><g transform="translate(51.667 0)"><g transform="translate(117.259 146.905)"><rect width="149.494" height="101.173" rx="12" fill="none" stroke="#2680eb" stroke-miterlimit="10" stroke-width="7"/><path d="M799.759,634.349" transform="translate(-765.406 -624.317)" fill="none" stroke="#2680eb" stroke-linecap="round" stroke-miterlimit="10" stroke-width="7"/></g><path d="M721.954,659.984" transform="translate(-711.371 -456.581)" fill="none" stroke="#1a1311" stroke-linecap="round" stroke-miterlimit="10" stroke-width="7"/><ellipse cx="10.022" cy="10.022" rx="10.022" ry="10.022" transform="translate(0 147.18)" fill="none" stroke="#2680eb" stroke-linecap="round" stroke-miterlimit="10" stroke-width="7"/><ellipse cx="44.573" cy="44.573" rx="44.573" ry="44.573" transform="translate(238.138 292.71)" fill="none" stroke="#feaa3c" stroke-linecap="round" stroke-miterlimit="10" stroke-width="7"/><path d="M925.882,829.059a182.9,182.9,0,0,1-23.163,1.466A181.03,181.03,0,0,1,721.645,649.452" transform="translate(-711.622 -465.139)" fill="none" stroke="#2680eb" stroke-linecap="round" stroke-miterlimit="10" stroke-width="7"/><path d="M918.62,638.245A156.749,156.749,0,0,1,915,686.931a149.42,149.42,0,0,1-15.6,39.747" transform="translate(-567.176 -474.247)" fill="none" stroke="#93bef2" stroke-linecap="round" stroke-miterlimit="10" stroke-width="7"/><path d="M754.621,717.786a147.166,147.166,0,0,1-19.576-44.818" transform="translate(-700.733 -446.031)" fill="none" stroke="#93bef2" stroke-linecap="round" stroke-miterlimit="10" stroke-width="7"/><path d="M791.563,731.409" transform="translate(-654.807 -398.541)" fill="none" stroke="#1a1311" stroke-linecap="round" stroke-miterlimit="10" stroke-width="7"/><path d="M1040.087,837.055A181.528,181.528,0,1,0,731.8,647.787" transform="translate(-703.368 -547.768)" fill="none" stroke="#2680eb" stroke-linecap="round" stroke-miterlimit="10" stroke-width="7"/><ellipse cx="3.701" cy="3.701" rx="3.701" ry="3.701" transform="translate(346.136 147.679)" fill="#93bef2"/><ellipse cx="3.701" cy="3.701" rx="3.701" ry="3.701" transform="translate(57.205 277.36)" fill="#93bef2"/><line y2="15.897" transform="translate(194.25 213.533)" fill="none" stroke="#2680eb" stroke-linecap="round" stroke-miterlimit="10" stroke-width="7"/><path d="M806.934,654.83V617.316A20.575,20.575,0,0,1,827.449,596.8h18.235A20.575,20.575,0,0,1,866.2,617.316v11.566" transform="translate(-642.316 -507.924)" fill="none" stroke="#2680eb" stroke-linecap="round" stroke-miterlimit="10" stroke-width="7"/><line x2="15.666" y2="16.888" transform="translate(258.993 344.637)" fill="none" stroke="#feaa3c" stroke-linecap="round" stroke-miterlimit="10" stroke-width="7"/><line x1="31.623" y2="38.118" transform="translate(274.806 323.138)" fill="none" stroke="#feaa3c" stroke-linecap="round" stroke-miterlimit="10" stroke-width="7"/><ellipse cx="3.701" cy="3.701" rx="3.701" ry="3.701" transform="translate(195.583 259.424)" fill="#93bef2"/><ellipse cx="3.701" cy="3.701" rx="3.701" ry="3.701" transform="translate(220.18 128.157)" fill="#2680eb"/><line x2="37.705" transform="translate(211.091 263.137)" fill="none" stroke="#93bef2" stroke-linecap="round" stroke-miterlimit="10" stroke-width="7"/><ellipse cx="22.528" cy="22.527" rx="22.528" ry="22.527" transform="translate(171.722 168.478)" fill="none" stroke="#2680eb" stroke-linecap="round" stroke-miterlimit="10" stroke-width="7"/></g></g></g></svg>