<svg xmlns="http://www.w3.org/2000/svg" xmlns:xlink="http://www.w3.org/1999/xlink" width="206.566" height="59.711" viewBox="0 0 206.566 59.711">
  <defs>
    <clipPath id="clip-path">
      <rect id="Rectangle_126" data-name="Rectangle 126" width="192.954" height="54.714" fill="none"/>
    </clipPath>
  </defs>
  <g id="Logo" transform="translate(-748.742 -524.033)">
    <g id="Group_16267" data-name="Group 16267" transform="translate(749.969 529.03)" opacity="0.5">
      <g id="Group_16266" data-name="Group 16266">
        <g id="Group_16265" data-name="Group 16265" clip-path="url(#clip-path)">
          <path id="Path_161" data-name="Path 161" d="M816.985,531.927v-6.053h2.132c5.331,6.662,10.665,13.321,16.278,20.335-5.35,6.76-10.659,13.462-16.164,20.409l-2.246.011-.052-5.779c-2.871-.054-5.741-.1-8.606-.1-10.972.016-18.5,6.871-18.76,19.833h-4.014c-.035-8.066-.122-20.7.111-28.763.326-11.246,9.046-19.654,20.354-19.928,3.791-.09,8.082.033,10.966.033M789.944,561.7c5.939-6.67,12.712-8.348,20.295-7.887a85.982,85.982,0,0,0,9.011,0c1.132-.051,2.629-.3,3.291-1.045,2.591-2.925,6.043-6.512,6.043-6.512a89.868,89.868,0,0,0-5.568-7.243,5.344,5.344,0,0,0-3.468-1.5c-4.774-.16-9.568-.215-14.342-.005-7.7.337-14.551,5.258-15.2,12.767-.369,4.315-.065,5.964-.065,11.431" transform="translate(-686.903 -525.871)" fill="#9d9d9c"/>
          <path id="Path_162" data-name="Path 162" d="M796.619,568.638H788.67v-21.2h-24.9a6.05,6.05,0,0,0-4.943,2.026,7.853,7.853,0,0,0-1.678,5.193,6.223,6.223,0,0,0,1.944,4.554,6.357,6.357,0,0,0,4.676,1.944H783.64v7.487H763.766q-6.8,0-10.681-4.266A15.244,15.244,0,0,1,749.2,553.7a12.92,12.92,0,0,1,4.193-9.8,14.549,14.549,0,0,1,10.374-3.951h24.377q-2.122-3.784-5.741-3.786H755.73v-7.487h26.612a13.862,13.862,0,0,1,10.266,4.022,13.494,13.494,0,0,1,4.011,9.929Z" transform="translate(-749.198 -521.064)" fill="#9d9d9c"/>
          <path id="Path_163" data-name="Path 163" d="M799.357,568.478h-29.23v-7.487h27.994q3.976,0,3.973-4.807,0-4.257-3.53-4.258H779.578a10.424,10.424,0,0,1-8.125-3.544,11.533,11.533,0,0,1-3-8.039,11.909,11.909,0,0,1,3.093-8.2,10.259,10.259,0,0,1,8.036-3.468H808.8v7.487H780.814q-3.976,0-3.976,4.019,0,4.257,3.446,4.255h19.073a10.314,10.314,0,0,1,8.036,3.43,11.775,11.775,0,0,1,3.093,8.158,13.528,13.528,0,0,1-2.737,8.511,9.946,9.946,0,0,1-8.392,3.94" transform="translate(-716.17 -521.064)" fill="#9d9d9c"/>
          <path id="Path_164" data-name="Path 164" d="M819.524,536.163a5.6,5.6,0,0,0-4.492,2.1,7.253,7.253,0,0,0-1.763,4.8v6.5h32.323v7.485H813.269v11.588h-7.946V542.627a13.5,13.5,0,0,1,4.009-9.929,13.753,13.753,0,0,1,10.179-4.022h26.345v7.487Z" transform="translate(-652.904 -521.064)" fill="#9d9d9c"/>
        </g>
      </g>
    </g>
    <path id="Path_165" data-name="Path 165" d="M816.182,530.922v-6.051h2.129c5.334,6.659,10.665,13.318,16.281,20.335l-16.164,20.409-2.246.008-.054-5.779c-2.868-.054-5.738-.1-8.606-.1-10.972.016-18.5,6.874-18.758,19.833H784.75c-.035-8.066-.122-20.7.111-28.762.326-11.246,9.046-19.654,20.355-19.928,3.791-.09,8.082.033,10.966.033m-27.043,29.77c5.942-6.67,12.715-8.348,20.3-7.886a85.305,85.305,0,0,0,9.011,0c1.133-.052,2.629-.3,3.291-1.046,2.591-2.922,6.04-6.51,6.04-6.51a89.116,89.116,0,0,0-5.57-7.248,5.337,5.337,0,0,0-3.468-1.5c-4.774-.16-9.567-.215-14.339-.005-7.7.339-14.551,5.26-15.2,12.767-.369,4.315-.068,5.964-.068,11.431" transform="translate(61.688 1.439)" fill="#fff"/>
    <path id="Path_166" data-name="Path 166" d="M796.172,567.74h-7.949v-21.2h-24.9a6.057,6.057,0,0,0-4.945,2.023,7.866,7.866,0,0,0-1.676,5.193,6.232,6.232,0,0,0,1.942,4.557,6.371,6.371,0,0,0,4.679,1.942h19.871v7.487H763.32q-6.8,0-10.684-4.266a15.245,15.245,0,0,1-3.886-10.67,12.919,12.919,0,0,1,4.2-9.8,14.548,14.548,0,0,1,10.374-3.951H787.7q-2.118-3.784-5.738-3.783H754.067v-7.49H781.9a13.877,13.877,0,0,1,10.265,4.022,13.505,13.505,0,0,1,4.011,9.932Z" transform="translate(0 6.425)" fill="#fff"/>
    <rect id="Rectangle_127" data-name="Rectangle 127" width="27.195" height="7.49" transform="translate(914.244 555.093)" fill="#fff"/>
    <path id="Path_167" data-name="Path 167" d="M814.581,537.368a5.609,5.609,0,0,1,4.5-2.1H845.41v-7.49H819.059A13.79,13.79,0,0,0,808.88,531.8a13.527,13.527,0,0,0-4.006,9.932V567.74h7.949v-6.292H812.8V544.554h.019v-2.387a7.264,7.264,0,0,1,1.757-4.8" transform="translate(96.297 6.427)" fill="#fff"/>
    <path id="Path_168" data-name="Path 168" d="M779.126,551.033a10.417,10.417,0,0,1-8.126-3.55,11.517,11.517,0,0,1-3-8.039,11.908,11.908,0,0,1,3.091-8.2,10.266,10.266,0,0,1,8.036-3.471h29.232v7.49h-28q-3.972,0-3.973,4.019,0,4.261,3.446,4.256H798.9a10.314,10.314,0,0,1,8.036,3.43,11.774,11.774,0,0,1,3.093,8.158,13.532,13.532,0,0,1-2.74,8.514,9.947,9.947,0,0,1-8.389,3.941H769.678V560.1h27.994q3.976,0,3.973-4.81,0-4.257-3.53-4.256Z" transform="translate(33.028 6.425)" fill="#fff"/>
    <path id="Path_169" data-name="Path 169" d="M825.23,524.033v.836h-1.654v4.161h-1.092v-4.16h-1.61v-.836Z" transform="translate(123.747)" fill="#fff"/>
    <path id="Path_170" data-name="Path 170" d="M823.915,524.033l1.654,2.447,1.662-2.447h1.2v5h-1.092v-3.517h-.016l-1.754,2.615-1.763-2.615h-.016v3.517H822.7v-5Z" transform="translate(126.877)" fill="#fff"/>
  </g>
</svg>
