<svg xmlns="http://www.w3.org/2000/svg" xmlns:xlink="http://www.w3.org/1999/xlink" width="386.989" height="380.989" viewBox="0 0 386.989 380.989"><defs><clipPath id="a"><rect x="65" y="71" width="386.989" height="380.989" fill="none"/></clipPath></defs><g transform="translate(-65 -71)" clip-path="url(#a)" style="isolation:isolate"><g transform="translate(-108.953 -147.953)"><g transform="translate(113.812 152.812)"><g transform="translate(0 0)"><g transform="translate(192.617 225.197)"><rect width="173.285" height="117.273" rx="7.509" fill="none" stroke="#2680eb" stroke-miterlimit="10" stroke-width="7"/><line y1="0.009" x2="26.404" transform="translate(10.94 80.844)" fill="none" stroke="#93bef2" stroke-linecap="round" stroke-miterlimit="10" stroke-width="7"/><line x2="28.881" transform="translate(51.781 80.853)" fill="none" stroke="#93bef2" stroke-linecap="round" stroke-miterlimit="10" stroke-width="7"/><line x2="28.881" transform="translate(92.623 80.853)" fill="none" stroke="#93bef2" stroke-linecap="round" stroke-miterlimit="10" stroke-width="7"/><line x2="173.285" transform="translate(0 24.067)" fill="none" stroke="#2680eb" stroke-linecap="round" stroke-miterlimit="10" stroke-width="7"/><line x2="173.285" transform="translate(0 44.196)" fill="none" stroke="#2680eb" stroke-linecap="round" stroke-miterlimit="10" stroke-width="7"/><line x2="28.881" transform="translate(133.464 80.853)" fill="none" stroke="#93bef2" stroke-linecap="round" stroke-miterlimit="10" stroke-width="7"/><line x2="69.722" transform="translate(10.94 92.769)" fill="none" stroke="#93bef2" stroke-linecap="round" stroke-miterlimit="10" stroke-width="7"/><line x2="28.881" transform="translate(133.464 92.769)" fill="none" stroke="#93bef2" stroke-linecap="round" stroke-miterlimit="10" stroke-width="7"/><path d="M1010.31,354.1" transform="translate(-970.49 -342.471)" fill="none" stroke="#2680eb" stroke-linecap="round" stroke-miterlimit="10" stroke-width="7"/></g><path d="M927.278,378.1" transform="translate(-844.954 -97.883)" fill="none" stroke="#1a1311" stroke-linecap="round" stroke-miterlimit="10" stroke-width="7"/><circle cx="9.996" cy="9.996" r="9.996" transform="translate(64.66 213.477)" fill="none" stroke="#2680eb" stroke-linecap="round" stroke-miterlimit="10" stroke-width="7"/><path d="M1128.585,370.892a156.39,156.39,0,0,1-9.3,47.8,148.932,148.932,0,0,1-20.123,37.531" transform="translate(-706.096 -103.707)" fill="none" stroke="#93bef2" stroke-linecap="round" stroke-miterlimit="10" stroke-width="7"/><path d="M959.9,435.788a146.792,146.792,0,0,1-19.527-44.7" transform="translate(-834.378 -87.394)" fill="none" stroke="#93bef2" stroke-linecap="round" stroke-miterlimit="10" stroke-width="7"/><path d="M996.888,449.526" transform="translate(-788.717 -40.181)" fill="none" stroke="#1a1311" stroke-linecap="round" stroke-miterlimit="10" stroke-width="7"/><path d="M1073.169,279.027" transform="translate(-727.091 -177.923)" fill="none" stroke="#1a1311" stroke-linecap="round" stroke-miterlimit="10" stroke-width="7"/><path d="M1052.885,271.093" transform="translate(-743.479 -184.333)" fill="none" stroke="#1a1311" stroke-linecap="round" stroke-miterlimit="10" stroke-width="7"/><ellipse cx="4.995" cy="4.995" rx="4.995" ry="4.995" transform="translate(417.554 246.06)" fill="none"/><ellipse cx="4.995" cy="4.995" rx="4.995" ry="4.995" transform="translate(204.187 158.789)" fill="none"/><ellipse cx="4.995" cy="4.995" rx="4.995" ry="4.995" transform="translate(128.827 354.992)" fill="none"/><path d="M997.608,460.627a13.616,13.616,0,0,1-16.58-9.681l-22.9-87.167a13.617,13.617,0,0,1,9.681-16.578l141.34-37.127a13.615,13.615,0,0,1,16.578,9.681l11.341,43.172" transform="translate(-820.387 -153.199)" fill="none" stroke="#2680eb" stroke-linecap="round" stroke-miterlimit="10" stroke-width="7"/><line y1="16.271" x2="57.628" transform="translate(221.631 143.239)" fill="none" stroke="#93bef2" stroke-linecap="round" stroke-miterlimit="10" stroke-width="7"/><path d="M184.865,0C286.963,0,369.73,82.767,369.73,184.865S286.963,369.73,184.865,369.73,0,286.963,0,184.865C0,114.622,39.177,53.529,97.657,21.821" transform="translate(0 306.52) rotate(-56)" fill="none" stroke="#2680eb" stroke-linecap="round" stroke-width="7"/></g></g></g></g></svg>