<svg xmlns="http://www.w3.org/2000/svg" width="143.562" height="86.448" viewBox="0 0 143.562 86.448"><path d="M870.372,75.138a42.41,42.41,0,0,0,28.789,11.2,43.221,43.221,0,0,0,0-86.441,42.41,42.41,0,0,0-28.789,11.2,43.252,43.252,0,0,0,0,64.035Z" transform="translate(-798.554 0.1)" fill="#e9b040"/><path d="M2047.5,981.033a1.328,1.328,0,0,1,1.333-1.333,1.345,1.345,0,0,1,1.406,1.333,1.361,1.361,0,0,1-1.406,1.407A1.346,1.346,0,0,1,2047.5,981.033Zm1.333,1.118a1.138,1.138,0,0,0,1.11-1.111,1.075,1.075,0,0,0-1.11-1.037,1.059,1.059,0,0,0-1.038,1.037A1.133,1.133,0,0,0,2048.833,982.151Zm-.148-.451h-.3v-1.259h.519a.447.447,0,0,1,.3.074c.148.074.148.148.148.3s-.075.3-.223.3l.3.593h-.372l-.147-.519h-.222v-.222h.3c.074,0,.074-.073.074-.148s0-.074-.074-.148h-.3Z" transform="translate(-1909.648 -913.733)" fill="#e9b040"/><path d="M85.694,38.653c-.148-1.555-.444-3.043-.741-4.6H58.689a45.025,45.025,0,0,1,1.185-4.524H83.688q-.778-2.343-1.777-4.6H61.726c.741-1.569,1.562-3.1,2.451-4.6H79.385a38.374,38.374,0,0,0-3.265-4.524H67.442a42.169,42.169,0,0,1,4.376-4.6A43.1,43.1,0,1,0,42.955,86.441a42.6,42.6,0,0,0,28.863-11.2,40.761,40.761,0,0,0,4.3-4.524H67.442a51.376,51.376,0,0,1-3.265-4.6H79.385a35.033,35.033,0,0,0,2.525-4.6H61.726c-.667-1.481-1.333-2.969-1.858-4.524h23.82a46.681,46.681,0,0,0,1.259-4.6,45.785,45.785,0,0,0,.741-4.6c.148-1.5.222-3.016.222-4.524a44.909,44.909,0,0,0-.215-4.619Z" transform="translate(0 0.007)" fill="#cc2131"/><path d="M2047.5,771.708a1.346,1.346,0,0,1,1.333-1.407,1.361,1.361,0,0,1,1.406,1.407,1.405,1.405,0,0,1-1.406,1.407A1.388,1.388,0,0,1,2047.5,771.708Zm1.333,1.043a1.039,1.039,0,1,0,0-2.074,1.037,1.037,0,1,0,0,2.074Zm-.148-.451h-.3v-1.185h.814c.148.074.148.222.148.37a.4.4,0,0,1-.223.3l.3.518h-.372l-.147-.444h-.222v-.222h.148c.074,0,.147,0,.147-.074.074,0,.074-.074.074-.148a.072.072,0,0,0-.074-.074c0-.075-.073,0-.147,0h-.148Z" transform="translate(-1909.648 -718.431)" fill="#fff"/><path d="M157.783,479.318l-.815,4.747a8.922,8.922,0,0,0-4.154-1.185c-3.488,0-5.938,3.413-5.938,8.234,0,3.339,1.629,5.339,4.376,5.339a9.117,9.117,0,0,0,3.932-1.111l-.815,4.969a15.514,15.514,0,0,1-4.08.667c-5.043,0-8.16-3.636-8.16-9.494,0-7.79,4.3-13.284,10.463-13.284a9.113,9.113,0,0,1,2.148.222l1.858.444c.592.229.741.3,1.185.451ZM142.8,482.583h-.444c-1.555,0-2.451.74-3.858,2.9l.444-2.747H134.7l-2.9,17.808h4.673c1.7-10.907,2.148-12.759,4.376-12.759h.3a18.6,18.6,0,0,1,1.777-5.117l-.135-.081Zm-26.857,17.734a9.653,9.653,0,0,1-3.339.592c-2.377,0-3.71-1.333-3.71-3.932a12.407,12.407,0,0,1,.148-1.562l.3-1.777.222-1.407,2.006-12.166h4.6l-.518,2.673h2.377l-.592,4.376h-2.383l-1.259,7.42a2.778,2.778,0,0,0-.074.741c0,.889.444,1.259,1.555,1.259a3.073,3.073,0,0,0,1.259-.149l-.586,3.932ZM98.057,488.367c0,2.228,1.037,3.784,3.488,4.969,1.932.889,2.229,1.185,2.229,1.932,0,1.111-.815,1.629-2.673,1.629a13.893,13.893,0,0,1-4.154-.667l-.667,4.08.222.074.815.148a4.849,4.849,0,0,0,1.259.148,17.228,17.228,0,0,0,2.525.148c4.895,0,7.2-1.858,7.2-5.938,0-2.451-.963-3.858-3.265-4.969-2.006-.889-2.229-1.111-2.229-1.932,0-.963.815-1.407,2.3-1.407a29.009,29.009,0,0,1,3.339.222l.667-4.08a26.958,26.958,0,0,0-4.08-.37c-5.2.007-7.049,2.754-6.975,6.012Zm95.261,12.173h-4.376l.222-1.71a5.563,5.563,0,0,1-4.3,1.932c-3.413,0-5.635-2.9-5.635-7.345,0-5.938,3.488-10.981,7.568-10.981a5.312,5.312,0,0,1,4.45,2.451l1.037-6.234h4.6l-3.562,21.888Zm-6.827-4.154c2.155,0,3.636-2.524,3.636-6.012,0-2.3-.815-3.488-2.451-3.488-2.08,0-3.636,2.451-3.636,5.938.007,2.37.821,3.561,2.451,3.561Zm-56.312,3.777a15.272,15.272,0,0,1-4.821.741c-5.191,0-7.864-2.747-7.864-8.012,0-6.086,3.413-10.611,8.086-10.611,3.858,0,6.309,2.525,6.309,6.457a17.964,17.964,0,0,1-.592,4.45h-9.2a1.447,1.447,0,0,0-.074.518c0,2.08,1.407,3.117,4.08,3.117a10.217,10.217,0,0,0,4.821-1.111l-.741,4.45Zm-2.592-10.6v-.889a2.056,2.056,0,0,0-2.229-2.3c-1.481,0-2.525,1.111-2.969,3.191ZM80.323,500.539h-4.6L78.4,483.694l-6.012,16.845H69.193l-.37-16.7L66,500.539H61.7l3.636-21.888h6.679l.222,13.58,4.45-13.58h7.271l-3.636,21.888Zm11.5-7.938c-.444,0-.667-.074-1.037-.074-2.6,0-3.932.963-3.932,2.747a1.562,1.562,0,0,0,1.629,1.777c1.932,0,3.265-1.784,3.339-4.45Zm3.413,7.938H91.378l.074-1.858a5.787,5.787,0,0,1-4.895,2.155c-2.525,0-4.228-1.933-4.228-4.821,0-4.376,2.969-6.9,8.16-6.9.518,0,1.185.074,1.932.148a3.739,3.739,0,0,0,.148-1.111c0-1.185-.815-1.629-2.969-1.629a15.351,15.351,0,0,0-3.858.444l-.667.222-.444.074.667-4.006a18.71,18.71,0,0,1,5.568-.889c4.006,0,6.16,1.778,6.16,5.191a22.469,22.469,0,0,1-.37,3.562l-1.037,6.309-.148,1.111-.074.889-.074.666-.088.444Zm70.04-7.938c-.518,0-.741-.074-1.037-.074-2.673,0-4.006.963-4.006,2.747a1.617,1.617,0,0,0,1.71,1.777c1.852,0,3.259-1.784,3.333-4.45Zm3.414,7.938h-3.858l.074-1.858a5.787,5.787,0,0,1-4.895,2.155c-2.525,0-4.228-1.933-4.228-4.821,0-4.376,2.969-6.9,8.16-6.9.518,0,1.192.074,1.858.148a4.708,4.708,0,0,0,.222-1.111c0-1.185-.815-1.629-2.969-1.629a15.925,15.925,0,0,0-3.932.444l-.592.222-.444.074.667-4.006a18.71,18.71,0,0,1,5.568-.889c4.006,0,6.086,1.778,6.086,5.191a15.951,15.951,0,0,1-.37,3.562l-.963,6.309-.148,1.111-.148.889-.074.666-.013.444Zm12.462-17.956h-.444c-1.555,0-2.451.74-3.858,2.9l.444-2.747h-4.228l-2.821,17.808h4.6c1.71-10.907,2.154-12.759,4.376-12.759h.3a18.592,18.592,0,0,1,1.777-5.117l-.141-.081Z" transform="translate(-57.546 -445.997)" fill="#fff"/></svg>