<svg xmlns="http://www.w3.org/2000/svg" width="27.456" height="54.463" viewBox="0 0 27.456 54.463"><g transform="translate(23.941 15.576) rotate(180)" fill="none" stroke-linecap="round"><path d="M4.381.735c.618-.98,11.392-.98,12.01,0L20.3,12.946a1.692,1.692,0,0,1-1.286,2.63H1.559a1.692,1.692,0,0,1-1.286-2.63Z" stroke="none"/><path d="M 10.38610172271729 3.499999046325684 C 8.967390060424805 3.499999046325684 7.863258361816406 3.561673164367676 7.09850025177002 3.633859634399414 L 4.25843620300293 12.07605934143066 L 16.34900856018066 12.07605934143066 L 13.64373970031738 3.63105297088623 C 12.88021564483643 3.560078620910645 11.78645896911621 3.499999046325684 10.38610172271729 3.499999046325684 M 10.38610076904297 -9.5367431640625e-07 C 13.2341423034668 -9.5367431640625e-07 16.08218193054199 0.244898796081543 16.39112091064453 0.7346992492675781 L 20.30278205871582 12.9456787109375 C 21.00726127624512 14.06256866455078 20.26728248596191 15.57605838775635 19.01673126220703 15.57605838775635 L 1.559181213378906 15.57605838775635 C 0.3086414337158203 15.57605838775635 -0.4313373565673828 14.06256866455078 0.2731418609619141 12.9456787109375 L 4.381071090698242 0.7346992492675781 C 4.690016746520996 0.244898796081543 7.538059234619141 -9.5367431640625e-07 10.38610076904297 -9.5367431640625e-07 Z" stroke="none"/></g><g transform="translate(-0.34 13.006)" fill="none" stroke-linecap="round"><path d="M7.96,5.853c.494-1.194,12.586-1.194,13.08,0l6.642,25.333c.341.825-.052.838-1.6,1.664L14.541,41.458H13.91L2.061,32.851c-1.571-.73-1.946-.84-1.6-1.664Z" stroke="none"/><path d="M 14.49999332427979 8.457645416259766 C 12.86960029602051 8.457645416259766 11.62232208251953 8.538795471191406 10.78779411315918 8.630180358886719 L 4.393377304077148 30.21879196166992 L 14.20189762115479 37.34370422363281 L 23.80060577392578 30.18251419067383 L 18.14794540405273 8.623252868652344 C 17.31420135498047 8.53472900390625 16.08911895751953 8.457645416259766 14.49999332427979 8.457645416259766 M 14.49999141693115 4.957645416259766 C 17.64643478393555 4.957645416259766 20.79287719726563 5.25616455078125 21.03996276855469 5.853206634521484 L 27.68214225769043 31.1865062713623 C 28.0234432220459 32.01119613647461 27.63005256652832 32.02455520629883 26.0772533416748 32.85073852539063 L 14.54086303710938 41.45754623413086 L 13.90991306304932 41.45754623413086 L 2.061332702636719 32.85073852539063 C 0.4906635284423828 32.12079620361328 0.115142822265625 32.01119613647461 0.4564437866210938 31.1865062713623 L 7.960012435913086 5.853206634521484 C 8.207103729248047 5.25616455078125 11.35354804992676 4.957645416259766 14.49999141693115 4.957645416259766 Z" stroke="none"/></g></svg>