<svg xmlns="http://www.w3.org/2000/svg" width="44.731" height="53.265" viewBox="0 0 44.731 53.265"><g transform="translate(1.771 1.765)"><path d="M258.544,250.047s21.736,19.984,14.793,29.652c-5.645,7.007-20.669,6.931-20.669,6.931s-21.246.077-18.975-11.667,14.6-24.526,14.6-24.526" transform="translate(-233.524 -236.879)" fill="none" stroke="#8a8a8a" stroke-width="3.5"/><path d="M260.435,235.076s-10.929-16.362.621-12.6c6.618,2.336,8.889,0,8.889,0s3.828-3.309,6.358,1.233c.973,2.011-4.412,9.343-5.45,10.706S260.435,235.076,260.435,235.076Z" transform="translate(-245.574 -221.313)" fill="none" stroke="#8a8a8a" stroke-width="3.5"/><path d="M277.433,275.533h-5.869s-3.107.16-3.076,3.16,1.682,3.188,4.206,3.214,4.694.539,4.739,3.148-.716,3.325-4.739,3.325h-4.206" transform="translate(-252.413 -250.686)" fill="none" stroke="#8a8a8a" stroke-linecap="round" stroke-width="3.5"/><path d="M278.461,267.344v3.686" transform="translate(-257.873 -246.25)" fill="none" stroke="#8a8a8a" stroke-linecap="round" stroke-width="3.5"/><path d="M278.293,303.567v3.672" transform="translate(-257.782 -265.874)" fill="none" stroke="#8a8a8a" stroke-linecap="round" stroke-width="3.5"/></g></svg>