<svg xmlns="http://www.w3.org/2000/svg" width="414.782" height="403.955" viewBox="0 0 414.782 403.955"><g transform="translate(3.5 4.354)"><path d="M500.98,472.985s-34.28-12.126-29.383,2.1,39.06,12.011,22.21,22.853" transform="translate(-368.154 -420.876)" fill="none" stroke="#93bef2" stroke-linecap="round" stroke-miterlimit="10" stroke-width="7"/><line x1="12.826" y2="35.348" transform="translate(111.372 42.781)" fill="none" stroke="#93bef2" stroke-linecap="round" stroke-miterlimit="10" stroke-width="7"/><g transform="translate(0 0)"><rect width="163.142" height="110.409" rx="8" transform="translate(0 78.129)" fill="none" stroke="#2680eb" stroke-miterlimit="10" stroke-width="7"/><line x2="27.19" transform="translate(10.299 154.249)" fill="none" stroke="#93bef2" stroke-linecap="round" stroke-miterlimit="10" stroke-width="7"/><line x2="27.19" transform="translate(48.75 154.249)" fill="none" stroke="#93bef2" stroke-linecap="round" stroke-miterlimit="10" stroke-width="7"/><line x2="27.19" transform="translate(87.201 154.249)" fill="none" stroke="#93bef2" stroke-linecap="round" stroke-miterlimit="10" stroke-width="7"/><line x2="163.142" transform="translate(0 100.787)" fill="none" stroke="#2680eb" stroke-linecap="round" stroke-miterlimit="10" stroke-width="7"/><line x2="163.142" transform="translate(0 119.738)" fill="none" stroke="#2680eb" stroke-linecap="round" stroke-miterlimit="10" stroke-width="7"/><line x2="27.19" transform="translate(125.652 154.249)" fill="none" stroke="#93bef2" stroke-linecap="round" stroke-miterlimit="10" stroke-width="7"/><line x2="65.641" transform="translate(10.299 165.467)" fill="none" stroke="#93bef2" stroke-linecap="round" stroke-miterlimit="10" stroke-width="7"/><line x2="27.19" transform="translate(125.652 165.467)" fill="none" stroke="#93bef2" stroke-linecap="round" stroke-miterlimit="10" stroke-width="7"/><path d="M440.191,505.8l18.776-62.986,138.3,41.229-26.554,89.077-3.663-1.092" transform="translate(-394.924 -442.818)" fill="none" stroke="#93bef2" stroke-linecap="round" stroke-miterlimit="10" stroke-width="7"/><path d="M448.148,500.138l14.39-48.271,109.845,32.745-12.789,42.9" transform="translate(-388.037 -434.986)" fill="none" stroke="#93bef2" stroke-linecap="round" stroke-miterlimit="10" stroke-width="7"/><path d="M436.022,490.566" transform="translate(-398.533 -401.489)" fill="none" stroke="#2680eb" stroke-linecap="round" stroke-miterlimit="10" stroke-width="7"/></g><g transform="translate(168.46 96.857)"><line x1="4.252" y2="10.945" transform="translate(55.061 49.737)" fill="none" stroke="#2680eb" stroke-linecap="round" stroke-miterlimit="10" stroke-width="7"/><g transform="translate(0 0)"><rect width="122.414" height="238.212" rx="12" transform="matrix(0.939, 0.345, -0.345, 0.939, 82.07, 0)" fill="none" stroke="#2680eb" stroke-linecap="round" stroke-miterlimit="10" stroke-width="7"/><line x2="51.998" y2="19.083" transform="translate(107.851 20.614)" fill="none" stroke="#2680eb" stroke-linecap="round" stroke-miterlimit="10" stroke-width="7"/><line x1="3.691" y2="9.502" transform="translate(62.355 32.403)" fill="none" stroke="#2680eb" stroke-linecap="round" stroke-miterlimit="10" stroke-width="7"/><line x1="2.154" y2="5.546" transform="translate(69.191 18.761)" fill="none" stroke="#2680eb" stroke-linecap="round" stroke-miterlimit="10" stroke-width="7"/><line x2="7.008" y2="18.668" transform="translate(78.87 127.481)" fill="none" stroke="#feaa3c" stroke-linecap="round" stroke-miterlimit="10" stroke-width="7"/><line x1="37.839" y2="20.159" transform="translate(86.085 125.823)" fill="none" stroke="#feaa3c" stroke-linecap="round" stroke-miterlimit="10" stroke-width="7"/><ellipse cx="36.192" cy="36.192" rx="36.192" ry="36.192" transform="translate(62.848 93.925)" fill="none" stroke="#feaa3c" stroke-linecap="round" stroke-miterlimit="10" stroke-width="7"/></g></g><path d="M437.658,574" transform="translate(-397.117 -329.268)" fill="none" stroke="#2680eb" stroke-linecap="round" stroke-miterlimit="10" stroke-width="7"/><path d="M631.369,456.963a185.047,185.047,0,0,1,170.09,184.554c0,102.26-82.9,185.159-185.159,185.159q-9.013,0-17.814-.847a186.887,186.887,0,0,1-23.688-3.824,183.828,183.828,0,0,1-28.884-9.129l-.688-.282A185.68,185.68,0,0,1,441.632,703.109" transform="translate(-393.677 -430.575)" fill="none" stroke="#2680eb" stroke-linecap="round" stroke-miterlimit="10" stroke-width="7"/><path d="M631.311,565.583" transform="translate(-229.495 -336.556)" fill="none" stroke="#2680eb" stroke-linecap="round" stroke-miterlimit="10" stroke-width="7"/><path d="M0,0A178.268,178.268,0,0,1,71.034,20.59" transform="translate(245.67 47.832) rotate(3)" fill="none" stroke="#93bef2" stroke-linecap="round" stroke-miterlimit="10" stroke-width="7"/><ellipse cx="10.315" cy="10.315" rx="10.315" ry="10.315" transform="translate(27.175 219.014)" fill="none" stroke="#93bef2" stroke-linecap="round" stroke-miterlimit="10" stroke-width="7"/><line x1="14.925" y2="41.665" transform="translate(194.779 263.386)" fill="none" stroke="#2680eb" stroke-linecap="round" stroke-miterlimit="10" stroke-width="7"/><line x1="1.668" y2="4.657" transform="translate(213.536 248.028)" fill="none" stroke="#2680eb" stroke-linecap="round" stroke-miterlimit="10" stroke-width="7"/><ellipse cx="3.689" cy="3.689" rx="3.689" ry="3.689" transform="translate(323.251 76.216) rotate(3)" fill="#93bef2"/></g></svg>