<svg xmlns="http://www.w3.org/2000/svg" width="41.835" height="48.197" viewBox="0 0 41.835 48.197"><g transform="translate(1.75 1.75)" style="isolation:isolate"><path d="M276.487,275.533h-5.248a2.828,2.828,0,0,0-2.751,2.826c.028,2.683,1.5,2.851,3.761,2.874s4.2.482,4.238,2.815-.64,2.973-4.238,2.973h-3.761" transform="translate(-253.386 -251.297)" fill="none" stroke="#2680eb" stroke-linecap="round" stroke-width="3.5"/><path d="M278.461,267.344v3.3" transform="translate(-259.585 -246.464)" fill="none" stroke="#2680eb" stroke-linecap="round" stroke-width="3.5"/><path d="M278.293,303.567v3.284" transform="translate(-259.417 -267.843)" fill="none" stroke="#2680eb" stroke-linecap="round" stroke-width="3.5"/><path d="M2917.515,1434H2909v23.817h38.335V1434h-8.208" transform="translate(-2908.996 -1413.12)" fill="none" stroke="#2680eb" stroke-linejoin="round" stroke-width="3.5"/><path d="M2912.307,1407.986l6.3-6.3,5.969,6.3" transform="translate(-2899.72 -1401.684)" fill="none" stroke="#2680eb" stroke-linecap="round" stroke-linejoin="round" stroke-width="3.5"/><line y1="13.836" transform="translate(18.876 1.409)" fill="none" stroke="#2680eb" stroke-linecap="round" stroke-width="3.5"/></g></svg>