<svg xmlns="http://www.w3.org/2000/svg" width="79" height="79" viewBox="0 0 79 79"><g transform="translate(0.411 0.434)"><circle cx="39.5" cy="39.5" r="39.5" transform="translate(-0.411 -0.434)" fill="#fff"/><g transform="translate(17.773 11.11)"><path d="M277.61,275.533h-5.985s-3.169.163-3.137,3.223,1.716,3.251,4.289,3.278,4.787.55,4.832,3.211-.73,3.39-4.832,3.39h-4.289" transform="translate(-251.266 -247.895)" fill="none" stroke="#2680eb" stroke-linecap="round" stroke-width="3.5"/><path d="M278.461,267.344V271.1" transform="translate(-256.936 -243.533)" fill="none" stroke="#2680eb" stroke-linecap="round" stroke-width="3.5"/><path d="M278.293,303.567v3.745" transform="translate(-256.767 -262.828)" fill="none" stroke="#2680eb" stroke-linecap="round" stroke-width="3.5"/><path d="M2918.711,1434H2909v27.16h43.715V1434h-9.359" transform="translate(-2908.996 -1410.19)" fill="none" stroke="#2680eb" stroke-linejoin="round" stroke-width="3.5"/><path d="M2912.307,1408.87l7.187-7.187,6.806,7.187" transform="translate(-2897.953 -1401.684)" fill="none" stroke="#2680eb" stroke-linecap="round" stroke-linejoin="round" stroke-width="3.5"/><line y1="15.778" transform="translate(21.525 1.607)" fill="none" stroke="#2680eb" stroke-linecap="round" stroke-width="3.5"/></g></g></svg>