<svg xmlns="http://www.w3.org/2000/svg" width="123.07" height="32.803" viewBox="0 0 123.07 32.803"><path d="M896.64,8.968c-.527,3.434-3.147,3.434-5.682,3.434h-1.442l1.015-6.418a.8.8,0,0,1,.791-.674h.659c1.728,0,3.356,0,4.2.984a3.222,3.222,0,0,1,.457,2.674M895.539,0h-9.573a1.339,1.339,0,0,0-1.318,1.124l-3.868,24.54a.8.8,0,0,0,.667.915.627.627,0,0,0,.124.008h4.914a.939.939,0,0,0,.922-.783l1.1-6.961a1.332,1.332,0,0,1,1.31-1.124h3.031c6.309,0,9.945-3.046,10.9-9.1.426-2.643.015-4.72-1.217-6.178C901.151.845,898.74,0,895.539,0" transform="translate(-812.498 0)" fill="#fff"/><path d="M15.837,8.968C15.318,12.4,12.69,12.4,10.156,12.4H8.714L9.729,5.984a.8.8,0,0,1,.791-.674h.659c1.729,0,3.356,0,4.2.984a3.221,3.221,0,0,1,.457,2.674M14.737,0H5.164A1.339,1.339,0,0,0,3.846,1.124L-.022,25.664a.8.8,0,0,0,.667.915.667.667,0,0,0,.124.008H5.342a1.325,1.325,0,0,0,1.31-1.124L7.7,18.843a1.332,1.332,0,0,1,1.31-1.124h3.031c6.309,0,9.945-3.054,10.9-9.1.426-2.643.016-4.72-1.217-6.178C20.348.845,17.938,0,14.737,0M36.959,17.781a5.108,5.108,0,0,1-5.17,4.379,3.858,3.858,0,0,1-3.077-1.24,3.892,3.892,0,0,1-.721-3.217,5.129,5.129,0,0,1,5.139-4.41,3.867,3.867,0,0,1,3.054,1.248,3.953,3.953,0,0,1,.775,3.24m6.387-8.929H38.765a.8.8,0,0,0-.791.674l-.2,1.279-.318-.465c-.992-1.442-3.2-1.922-5.41-1.922a10.543,10.543,0,0,0-10.232,9.216,8.656,8.656,0,0,0,1.705,7.046,7.18,7.18,0,0,0,5.775,2.333,8.78,8.78,0,0,0,6.348-2.62l-.2,1.271a.8.8,0,0,0,.667.915.666.666,0,0,0,.124.008h4.124a1.339,1.339,0,0,0,1.318-1.124l2.48-15.688a.8.8,0,0,0-.667-.915.753.753,0,0,1-.14-.008" transform="translate(0.032 0)" fill="#fff"/><path d="M1176.1,117.963a5.108,5.108,0,0,1-5.17,4.379,3.556,3.556,0,0,1-3.8-4.457,5.129,5.129,0,0,1,5.139-4.41,3.868,3.868,0,0,1,3.054,1.248,3.952,3.952,0,0,1,.775,3.24m6.387-8.929H1177.9a.8.8,0,0,0-.79.674l-.2,1.279-.318-.465c-.992-1.442-3.2-1.922-5.41-1.922a10.543,10.543,0,0,0-10.231,9.216,8.655,8.655,0,0,0,1.705,7.046,7.179,7.179,0,0,0,5.775,2.333,8.779,8.779,0,0,0,6.348-2.62l-.2,1.271a.8.8,0,0,0,.659.915.708.708,0,0,0,.132.008h4.124a1.339,1.339,0,0,0,1.318-1.124l2.48-15.688a.8.8,0,0,0-.667-.915.715.715,0,0,1-.14-.008" transform="translate(-1070.835 -100.182)" fill="#fff"/><path d="M620.262,114.208H615.65a1.329,1.329,0,0,0-1.1.581l-6.356,9.356-2.7-8.991a1.344,1.344,0,0,0-1.271-.953H599.7a.8.8,0,0,0-.8.8.712.712,0,0,0,.047.256l5.077,14.9-4.775,6.736a.8.8,0,0,0,.651,1.263h4.6a1.338,1.338,0,0,0,1.093-.574l15.324-22.122a.794.794,0,0,0-.659-1.248" transform="translate(-552.476 -105.348)" fill="#fff"/><path d="M1463.211.674l-3.93,24.99a.8.8,0,0,0,.666.915.668.668,0,0,0,.124.008h3.953a1.339,1.339,0,0,0,1.318-1.124l3.875-24.54a.8.8,0,0,0-.667-.915.666.666,0,0,0-.124-.008h-4.418a.8.8,0,0,0-.8.674" transform="translate(-1346.158 0)" fill="#fff"/></svg>