<svg xmlns="http://www.w3.org/2000/svg" width="49.539" height="44.635" viewBox="0 0 49.539 44.635"><g transform="translate(1.985 2.609)"><path d="M.326,15.071c-.217-.822-1.612-2.132,3.692-6.239s8.111-6.655,8.111-6.655,4.6-5.252,6.359.561,6.374,20.3,6.374,20.3,1.8,4.831-1.981,4.846-16.027-.209-16.027-.209-1.989-.414-3.282-3.46-2.934-8-2.934-8Z" transform="translate(0 12.617) rotate(-11)" fill="none" stroke="#707070" stroke-width="3.5"/><path d="M0,0S8.931,3.883,4.271,14.367" transform="translate(27.899 10.683) rotate(-11)" fill="none" stroke="#707070" stroke-linecap="round" stroke-width="3.5"/><path d="M0,0A19.787,19.787,0,0,1,7.645,6.781c2.549,3.795,4.174,10.172.112,19.311" transform="translate(30.306 1.95) rotate(-11)" fill="none" stroke="#707070" stroke-linecap="round" stroke-width="3.5"/></g></svg>