<svg xmlns="http://www.w3.org/2000/svg" xmlns:xlink="http://www.w3.org/1999/xlink" width="310.168" height="93.168" viewBox="0 0 310.168 93.168"><defs><clipPath id="a"><rect x="16" y="115" width="310.168" height="93.168" fill="none"/></clipPath><clipPath id="b"><rect width="335.168" height="335.168" fill="none"/></clipPath><clipPath id="d"><rect width="286.942" height="81.362" fill="none"/></clipPath><clipPath id="e"><path d="M144.339,139.319c.96-11.162,11.148-18.483,22.6-18.986,7.1-.311,14.224-.229,21.328.007a7.961,7.961,0,0,1,5.154,2.234,133.408,133.408,0,0,1,8.278,10.773s-5.129,5.337-8.984,9.684c-.985,1.114-3.208,1.478-4.892,1.554a127.332,127.332,0,0,1-13.4,0c-11.273-.687-21.348,1.81-30.179,11.732,0-8.13-.452-10.585.1-17m40.114-36.274v9c-4.292,0-10.668-.183-16.309-.047-16.818.4-29.785,12.907-30.269,29.632-.348,11.984-.215,30.78-.167,42.774h5.971c.385-19.277,11.583-29.47,27.9-29.493,4.266-.006,8.533.063,12.8.144l.08,8.595,3.34-.014c8.185-10.336,16.077-20.3,24.039-30.353l-24.211-30.241Z" transform="translate(-137.643 -103.045)" fill="#3187ec"/></clipPath><clipPath id="f"><path d="M22.746,112.977v11.136h41.47q5.385,0,8.537,5.626H36.506a21.645,21.645,0,0,0-15.43,5.878,19.215,19.215,0,0,0-6.237,14.574q0,9.522,5.778,15.868T36.506,172.4H66.055V161.27H36.506a9.479,9.479,0,0,1-6.96-2.89,9.272,9.272,0,0,1-2.889-6.778,11.691,11.691,0,0,1,2.494-7.721q2.5-3.006,7.355-3.007H73.54V172.4H85.358v-38.68A20.093,20.093,0,0,0,79.4,118.955q-5.961-5.979-15.267-5.978Z" transform="translate(-14.839 -112.977)" fill="#3187ec"/></clipPath><clipPath id="g"><rect width="40.44" height="11.136" fill="#3187ec"/></clipPath><clipPath id="h"><path d="M227.636,112.977a20.479,20.479,0,0,0-15.137,5.978,20.092,20.092,0,0,0-5.96,14.769V172.4h11.818v-9.357h-.024v-25.12h.024v-3.555a10.8,10.8,0,0,1,2.619-7.135,8.335,8.335,0,0,1,6.683-3.124h39.159V112.977Z" transform="translate(-206.538 -112.977)" fill="#3187ec"/></clipPath><clipPath id="i"><path d="M97.137,112.977a15.256,15.256,0,0,0-11.949,5.158,17.718,17.718,0,0,0-4.6,12.191,17.159,17.159,0,0,0,4.465,11.955,15.5,15.5,0,0,0,12.082,5.275h28.236q5.252,0,5.252,6.329,0,7.149-5.91,7.15H83.087V172.17h43.467q8.008,0,12.475-5.861a20.109,20.109,0,0,0,4.072-12.66,17.511,17.511,0,0,0-4.6-12.13,15.338,15.338,0,0,0-11.95-5.1H98.189q-5.122,0-5.122-6.329,0-5.977,5.91-5.977h41.63V112.977Z" transform="translate(-80.591 -112.977)" fill="#3187ec"/></clipPath></defs><g transform="translate(-16 -115)" clip-path="url(#a)" style="isolation:isolate"><g clip-path="url(#b)"><g clip-path="url(#b)"><g transform="translate(19.357 125.889)" opacity="0.5"><g clip-path="url(#d)"><path d="M187.2,115.473v-9h3.169l24.211,30.242-24.04,30.352-3.339.015-.082-8.6c-4.265-.083-8.531-.15-12.8-.144-16.312.024-27.508,10.217-27.9,29.493h-5.971c-.048-11.993-.181-30.79.167-42.773.485-16.725,13.451-29.229,30.269-29.632,5.641-.136,12.017.047,16.309.047m-40.214,44.27c8.831-9.921,18.907-12.418,30.178-11.731a127.344,127.344,0,0,0,13.4,0c1.684-.076,3.908-.441,4.894-1.554,3.853-4.348,8.984-9.684,8.984-9.684A133.646,133.646,0,0,0,196.166,126a7.978,7.978,0,0,0-5.156-2.234c-7.1-.235-14.229-.317-21.327-.006-11.45.5-21.639,7.823-22.6,18.986-.552,6.416-.1,8.869-.1,17" transform="translate(6.249 -106.469)" fill="#9d9d9c"/><path d="M86.89,175.468H75.071V143.937H38.038q-4.86,0-7.354,3.007a11.691,11.691,0,0,0-2.494,7.721,9.27,9.27,0,0,0,2.889,6.779,9.476,9.476,0,0,0,6.96,2.889H67.586v11.136H38.038q-10.115,0-15.889-6.347t-5.778-15.868a19.218,19.218,0,0,1,6.237-14.574,21.642,21.642,0,0,1,15.43-5.876H74.285q-3.152-5.628-8.537-5.627H26.089V116.04H65.662q9.3,0,15.267,5.978a20.094,20.094,0,0,1,5.962,14.769Z" transform="translate(-16.371 -104.723)" fill="#9d9d9c"/><path d="M128.087,175.233H84.619V164.1h41.629q5.911,0,5.91-7.151,0-6.328-5.252-6.328H98.671a15.5,15.5,0,0,1-12.083-5.275,17.162,17.162,0,0,1-4.465-11.955,17.7,17.7,0,0,1,4.6-12.191,15.255,15.255,0,0,1,11.949-5.159h43.467v11.136h-41.63q-5.908,0-5.91,5.978,0,6.33,5.123,6.329h28.366a15.34,15.34,0,0,1,11.949,5.1,17.509,17.509,0,0,1,4.6,12.131,20.114,20.114,0,0,1-4.071,12.659q-4.466,5.862-12.475,5.86" transform="translate(-4.378 -104.723)" fill="#9d9d9c"/><path d="M229.19,127.176a8.336,8.336,0,0,0-6.683,3.125,10.794,10.794,0,0,0-2.618,7.133V147.1h48.064v11.135H219.889v17.231H208.071V136.787a20.084,20.084,0,0,1,5.96-14.768,20.476,20.476,0,0,1,15.136-5.978h39.181v11.135Z" transform="translate(18.594 -104.723)" fill="#9d9d9c"/></g></g></g><g transform="translate(162.748 121.84)"><g clip-path="url(#e)"><rect width="74.305" height="81.362" transform="translate(-0.115)" fill="#3187ec"/></g></g><g transform="translate(17.546 133.584)"><g clip-path="url(#f)"><rect width="70.519" height="59.427" transform="translate(0 0)" fill="#3187ec"/></g></g><g transform="translate(263.653 164.645)"><g clip-path="url(#g)"><rect width="40.44" height="11.136" fill="#3187ec"/></g></g><g transform="translate(244.21 133.584)"><g clip-path="url(#h)"><rect width="60.279" height="59.427" transform="translate(0 0)" fill="#3187ec"/></g></g><g transform="translate(95.291 133.584)"><g clip-path="url(#i)"><rect width="60.31" height="63.567" transform="translate(-1.066 59.174) rotate(-88.968)" fill="#3187ec"/></g></g><g clip-path="url(#b)"><path d="M267.663,100.186v1.242h-2.458v6.187h-1.622v-6.187h-2.4v-1.242Z" transform="translate(47.639 18.273)" fill="#1c73f1"/><path d="M269.227,100.186l2.458,3.638,2.471-3.638h1.784v7.429h-1.621v-5.229h-.026l-2.608,3.889-2.621-3.889h-.024v5.229h-1.623v-7.429Z" transform="translate(48.776 18.273)" fill="#1c73f1"/></g></g></g></svg>