<svg xmlns="http://www.w3.org/2000/svg" width="35.333" height="35.333" viewBox="0 0 35.333 35.333"><g transform="translate(0)" fill="none"><path d="M17.667,0A17.667,17.667,0,1,1,0,17.667,17.667,17.667,0,0,1,17.667,0Z" stroke="none"/><path d="M 17.66667747497559 3.499998092651367 C 13.88261795043945 3.499998092651367 10.32505798339844 4.973587036132813 7.649316787719727 7.649316787719727 C 4.973587036132813 10.32505798339844 3.499998092651367 13.88261795043945 3.499998092651367 17.66667747497559 C 3.499998092651367 21.45073699951172 4.973587036132813 25.00829696655273 7.649316787719727 27.68403816223145 C 10.32505798339844 30.35976791381836 13.88261795043945 31.8333568572998 17.66667747497559 31.8333568572998 C 21.45073699951172 31.8333568572998 25.00829696655273 30.35976791381836 27.68403816223145 27.68403816223145 C 30.35976791381836 25.00829696655273 31.8333568572998 21.45073699951172 31.8333568572998 17.66667747497559 C 31.8333568572998 13.88261795043945 30.35976791381836 10.32505798339844 27.68403816223145 7.649316787719727 C 25.00829696655273 4.973587036132813 21.45073699951172 3.499998092651367 17.66667747497559 3.499998092651367 M 17.66667747497559 -3.814697265625e-06 C 27.4237174987793 -3.814697265625e-06 35.33335876464844 7.909637451171875 35.33335876464844 17.66667747497559 C 35.33335876464844 27.4237174987793 27.4237174987793 35.33335876464844 17.66667747497559 35.33335876464844 C 7.909637451171875 35.33335876464844 -3.814697265625e-06 27.4237174987793 -3.814697265625e-06 17.66667747497559 C -3.814697265625e-06 7.909637451171875 7.909637451171875 -3.814697265625e-06 17.66667747497559 -3.814697265625e-06 Z" stroke="none" fill="#707070"/></g><line x1="23.981" y2="23.981" transform="translate(5.995 5.358)" fill="none" stroke="#707070" stroke-width="3.5"/></svg>