<svg xmlns="http://www.w3.org/2000/svg" width="67.731" height="67.731" viewBox="0 0 67.731 67.731"><g transform="translate(6.896 4.95)"><g transform="translate(0 47.317) rotate(-45)" fill="none" stroke-linecap="round"><path d="M9.364,0H65.705a1.212,1.212,0,0,1,1.212,1.212V10.9a1.212,1.212,0,0,1-1.212,1.212H9.364C8.7,12.116,8.153,11.574,0,5.51,8.153.543,8.7,0,9.364,0Z" stroke="none"/><path d="M 65.70502471923828 0 L 9.364414215087891 0.000141143798828125 C 8.69525146484375 0.000141143798828125 8.152790069580078 0.5426120758056641 0 5.510164737701416 C 8.152767181396484 11.57394123077393 8.695224761962891 12.11639976501465 9.364391326904297 12.11639976501465 L 65.70500183105469 12.11625862121582 C 66.37416839599609 12.11625862121582 66.9166259765625 11.5738000869751 66.9166259765625 10.90463542938232 L 66.91666412353516 1.211623191833496 C 66.91666412353516 0.5424585342407227 66.37419891357422 0 65.70502471923828 0 M 65.70501708984375 -3.5 L 65.70502471923828 -3.5 C 68.30302429199219 -3.5 70.41666412353516 -1.38637638092041 70.41666412353516 1.211623191833496 L 70.4166259765625 10.90464687347412 C 70.4166259765625 13.50263500213623 68.30300140380859 15.61625862121582 65.70500183105469 15.61625862121582 L 9.364402770996094 15.61639976501465 C 8.020401000976563 15.61639976501465 7.065319061279297 15.04563522338867 6.202262878417969 14.46103477478027 C 5.441036224365234 13.94541168212891 4.279472351074219 13.07617664337158 2.170799255371094 11.49818801879883 C 1.049324035644531 10.6589412689209 -0.3464126586914063 9.614470481872559 -2.088783264160156 8.318540573120117 L -6.252761840820313 5.221494197845459 L -1.821151733398438 2.521282196044922 C 0.8584518432617188 0.8885879516601563 2.685096740722656 -0.2470827102661133 4.01885986328125 -1.07631778717041 C 5.418556213378906 -1.946540832519531 6.189579010009766 -2.425893783569336 6.757484436035156 -2.73829460144043 C 7.476543426513672 -3.133835792541504 8.290050506591797 -3.499858856201172 9.364414215087891 -3.499858856201172 L 65.70501708984375 -3.5 Z" stroke="none" fill="#fff"/></g><path d="M0,0,1.264,1.607l.983,1.25" transform="translate(3.257 49.967)" fill="none" stroke="#fff" stroke-linecap="round" stroke-width="3.5"/><line x2="10.544" y2="10.9" transform="translate(38.786 6.555)" fill="none" stroke="#fff" stroke-linecap="round" stroke-width="3.5"/><path d="M254,205.552c.037-.11,1.242-7.817,1.242-7.817l5.991,7.525Z" transform="translate(-252.589 -151.676)" fill="none"/></g></svg>